<?xml version="1.0" encoding="UTF-8" standalone="no"?>
<svg
   xmlns:dc="http://purl.org/dc/elements/1.1/"
   xmlns:cc="http://creativecommons.org/ns#"
   xmlns:rdf="http://www.w3.org/1999/02/22-rdf-syntax-ns#"
   xmlns:svg="http://www.w3.org/2000/svg"
   xmlns="http://www.w3.org/2000/svg"
   xmlns:xlink="http://www.w3.org/1999/xlink"
   xmlns:sodipodi="http://sodipodi.sourceforge.net/DTD/sodipodi-0.dtd"
   xmlns:inkscape="http://www.inkscape.org/namespaces/inkscape"
   viewBox="0 0 1994.3684 599.99998"
   id="svg25"
   height="600"
   width="1994.3684"
   version="1.1"
   inkscape:version="0.91 r13725"
   sodipodi:docname="vkontakte_2007.svg">
  <sodipodi:namedview
     pagecolor="#ffffff"
     bordercolor="#666666"
     borderopacity="1"
     objecttolerance="10"
     gridtolerance="10"
     guidetolerance="10"
     inkscape:pageopacity="0"
     inkscape:pageshadow="2"
     inkscape:window-width="1680"
     inkscape:window-height="987"
     id="namedview19"
     showgrid="false"
     fit-margin-top="0"
     fit-margin-left="0"
     fit-margin-right="0"
     fit-margin-bottom="0"
     inkscape:zoom="3.7154508"
     inkscape:cx="37.639238"
     inkscape:cy="63.769273"
     inkscape:window-x="-8"
     inkscape:window-y="-8"
     inkscape:window-maximized="1"
     inkscape:current-layer="svg25" />
  <metadata
     id="metadata31">
    <rdf:RDF>
      <cc:Work
         rdf:about="">
        <dc:format>image/svg+xml</dc:format>
        <dc:type
           rdf:resource="http://purl.org/dc/dcmitype/StillImage" />
        <dc:title></dc:title>
      </cc:Work>
    </rdf:RDF>
  </metadata>
  <defs
     id="defs29" />
  <g
     id="Layer1000"
     transform="matrix(5.9778818,0,0,5.9778818,-782.05878,-2220.058)">
    <defs
       id="defs8">
      <linearGradient
         id="grad1">
        <stop
           id="stop2"
           stop-opacity="1.0000"
           stop-color="#005987"
           offset="0%" />
        <stop
           id="stop4"
           stop-opacity="1.0000"
           stop-color="#4790b5"
           offset="100%" />
      </linearGradient>
      <linearGradient
         gradientUnits="userSpaceOnUse"
         y2="860.07788"
         x2="71.757118"
         y1="677.08636"
         x1="71.757118"
         id="grad2"
         xlink:href="#grad1"
         gradientTransform="scale(1.8231696,0.54849532)" />
    </defs>
    <path
       id="path10"
       style="fill:url(#grad2)"
       d="m 148.7029,371.3787 297.8696,0 c 9.8326,0 17.8775,8.0454 17.8775,17.8775 l 0,64.615 c 0,9.8321 -8.0454,17.8775 -17.8775,17.8775 l -297.8696,0 c -9.8321,0 -17.8775,-8.0449 -17.8775,-17.8775 l 0,-64.615 c 0,-9.8327 8.0448,-17.8775 17.8775,-17.8775 z"
       inkscape:connector-curvature="0" />
    <path
       id="path12"
       style="fill:none"
       d="m 131.1651,371.7184 332.9451,0 0,99.6905 -332.9451,0 z"
       inkscape:connector-curvature="0" />
    <g
       id="Layer1001">
      <g
         id="Layer1002">
        <path
           id="path16"
           style="fill:#ffffff;fill-rule:evenodd"
           d="m 242.8728,434.8552 -9.5345,0 -6.2782,-10.5362 -2.1492,0 0,10.5362 -8.282,0 0,-26.583 8.282,0 0,10.6734 c 1.1634,-0.016 2.036,-0.1855 2.6099,-0.509 0.5736,-0.3231 1.2039,-1.1794 1.8825,-2.5692 0.2181,-0.4688 0.4607,-0.9938 0.7111,-1.5596 0.2504,-0.5654 0.4849,-1.0744 0.6867,-1.5188 0.8403,-1.7455 1.8665,-2.9494 3.0948,-3.5957 1.2199,-0.6466 2.7068,-0.9697 4.4601,-0.9697 0.614,0 1.1957,0.008 1.7533,0.0244 0.5494,0.016 0.9453,0.0242 1.1797,0.0242 l 0,7.1022 -1.6078,0 c -0.5091,0 -0.9616,0.0969 -1.3656,0.299 -0.3959,0.194 -0.7513,0.4445 -1.0503,0.7435 -0.2991,0.315 -0.5253,0.63 -0.6708,0.9453 -0.1535,0.315 -0.299,0.6221 -0.4444,0.9211 -0.3636,0.8563 -0.6303,1.4625 -0.7999,1.8261 -0.1777,0.3635 -0.4848,0.7108 -0.9211,1.0584 z m 28.5059,-13.2834 c 0,4.3793 -1.1957,7.8213 -3.5875,10.3422 -2.3915,2.5131 -5.7689,3.7734 -10.1403,3.7734 -4.3469,0 -7.7163,-1.2603 -10.124,-3.7734 -2.4078,-2.5209 -3.612,-5.9629 -3.612,-10.3422 0,-4.4199 1.2042,-7.878 3.612,-10.3829 2.4077,-2.4965 5.7771,-3.7489 10.124,-3.7489 4.3551,0 7.7326,1.2603 10.1325,3.7734 2.3996,2.5209 3.5953,5.9711 3.5953,10.3584 z m -8.4999,0.0483 c 0,-1.5756 -0.1294,-2.8926 -0.388,-3.9429 -0.2667,-1.0503 -0.6221,-1.8906 -1.0826,-2.5209 -0.4848,-0.6626 -1.0424,-1.123 -1.6564,-1.3898 -0.614,-0.2585 -1.317,-0.3877 -2.1009,-0.3877 -0.7432,0 -1.4139,0.1129 -2.02,0.3473 -0.5978,0.2263 -1.1472,0.6626 -1.6562,1.3089 -0.4686,0.6143 -0.8485,1.4625 -1.1312,2.5372 -0.283,1.0747 -0.4284,2.424 -0.4284,4.0479 0,1.6323 0.1376,2.9412 0.404,3.9514 0.2667,1.0017 0.6143,1.8016 1.0424,2.3996 0.4363,0.614 0.9939,1.0666 1.6565,1.3493 0.6623,0.2827 1.3976,0.4282 2.1977,0.4282 0.6624,0 1.3412,-0.1455 2.028,-0.4282 0.6867,-0.2827 1.2361,-0.7109 1.6401,-1.2766 0.493,-0.6786 0.8647,-1.4947 1.1152,-2.4563 0.2504,-0.9535 0.3798,-2.2786 0.3798,-3.9674 z m 38.0323,13.2351 -8.282,0 0,-11.3846 -8.5647,0 0,11.3846 -8.282,0 0,-26.583 8.282,0 0,9.211 8.5647,0 0,-9.211 8.282,0 z m 28.1746,-20.8059 -8.2415,0 0,20.8059 -8.2818,0 0,-20.8059 -8.2415,0 0,-5.7771 24.7648,0 z m 18.0588,13.8732 0,-5.5427 c -1.4058,0.1455 -2.5451,0.2665 -3.4098,0.3636 -0.8726,0.105 -1.721,0.3069 -2.5613,0.6059 -0.7272,0.2504 -1.2848,0.6384 -1.6888,1.1474 -0.404,0.5172 -0.6058,1.1958 -0.6058,2.0524 0,1.2443 0.3394,2.1006 1.0098,2.5694 0.6708,0.4605 1.6565,0.6949 2.9654,0.6949 0.7274,0 1.4706,-0.1699 2.23,-0.5011 0.7597,-0.3313 1.4465,-0.7918 2.0605,-1.3898 z m 0,4.1128 c -0.5655,0.4767 -1.0745,0.9049 -1.527,1.2847 -0.4526,0.3718 -1.0504,0.7513 -1.8101,1.1312 -0.7431,0.3636 -1.4624,0.6384 -2.1654,0.8322 -0.7028,0.1858 -1.6885,0.283 -2.9491,0.283 -2.3513,0 -4.3065,-0.792 -5.858,-2.3676 -1.5593,-1.5756 -2.335,-3.5631 -2.335,-5.963 0,-1.9715 0.3959,-3.5712 1.1876,-4.7832 0.7839,-1.2121 1.9232,-2.1818 3.4016,-2.8845 1.5029,-0.7275 3.2967,-1.2365 5.3813,-1.5192 2.0849,-0.2827 4.3228,-0.5009 6.7227,-0.6626 l 0,-0.1454 c 0,-1.4625 -0.5413,-2.4805 -1.6242,-3.0381 -1.0826,-0.5575 -2.7068,-0.8403 -4.8641,-0.8403 -0.9776,0 -2.125,0.1778 -3.4339,0.5332 -1.3089,0.3557 -2.5936,0.808 -3.8379,1.3574 l -0.7112,0 0,-6.4152 c 0.8243,-0.2344 2.1492,-0.5172 3.9755,-0.8403 1.8339,-0.3234 3.6843,-0.4849 5.5427,-0.4849 4.5813,0 7.9184,0.7595 10.0111,2.2865 2.0928,1.5192 3.135,3.8461 3.135,6.9731 l 0,18.0829 -8.2416,0 z m 40.618,2.8199 -9.5345,0 -6.2782,-10.5362 -2.1492,0 0,10.5362 -8.282,0 0,-26.583 8.282,0 0,10.6734 c 1.1635,-0.016 2.036,-0.1855 2.6099,-0.509 0.5736,-0.3231 1.2039,-1.1794 1.8825,-2.5692 0.2181,-0.4688 0.4607,-0.9938 0.7111,-1.5596 0.2505,-0.5654 0.4849,-1.0744 0.6868,-1.5188 0.8403,-1.7455 1.8664,-2.9494 3.0947,-3.5957 1.2199,-0.6466 2.7068,-0.9697 4.4601,-0.9697 0.614,0 1.1957,0.008 1.7533,0.0244 0.5495,0.016 0.9453,0.0242 1.1798,0.0242 l 0,7.1022 -1.6079,0 c -0.509,0 -0.9616,0.0969 -1.3656,0.299 -0.3959,0.194 -0.7513,0.4445 -1.0503,0.7435 -0.299,0.315 -0.5253,0.63 -0.6708,0.9453 -0.1535,0.315 -0.299,0.6221 -0.4444,0.9211 -0.3636,0.8563 -0.6303,1.4625 -0.7999,1.8261 -0.1777,0.3635 -0.4848,0.7108 -0.9211,1.0584 z m 24.8134,-20.8059 -8.2415,0 0,20.8059 -8.2818,0 0,-20.8059 -8.2415,0 0,-5.7771 24.7648,0 z m 17.0166,21.5171 c -5.0176,0 -8.8637,-1.1961 -11.5382,-3.5957 -2.6745,-2.3999 -4.0159,-5.8175 -4.0159,-10.2534 0,-4.3391 1.2443,-7.8053 3.7411,-10.3908 2.4967,-2.5939 5.9792,-3.8865 10.4637,-3.8865 4.0721,0 7.1346,1.0989 9.1869,3.2885 2.0523,2.1977 3.0785,5.3408 3.0785,9.4292 l 0,2.9816 -18.1638,0 c 0.0806,1.228 0.3392,2.2623 0.7836,3.0866 0.4363,0.8322 1.0262,1.4866 1.7533,1.9796 0.703,0.4927 1.5352,0.8403 2.4808,1.0503 0.9453,0.2182 1.9796,0.3232 3.1026,0.3232 0.9616,0 1.915,-0.105 2.8441,-0.3232 0.9293,-0.21 1.7856,-0.493 2.5531,-0.8403 0.6789,-0.299 1.3092,-0.6221 1.8828,-0.9697 0.5817,-0.3473 1.0503,-0.6544 1.4139,-0.9209 l 0.8728,0 0,6.8437 c -0.6788,0.2664 -1.301,0.5169 -1.8586,0.7432 -0.5573,0.2263 -1.333,0.4607 -2.3109,0.6948 -0.8967,0.2426 -1.826,0.4285 -2.7794,0.5576 -0.9535,0.1373 -2.1169,0.2022 -3.4904,0.2022 z m 2.7472,-17.4206 c -0.0486,-1.7533 -0.4526,-3.0864 -1.2202,-4.0075 -0.7675,-0.9131 -1.9391,-1.3738 -3.5147,-1.3738 -1.6161,0 -2.8685,0.4849 -3.7815,1.4465 -0.9049,0.9616 -1.4058,2.2786 -1.5029,3.9348 z"
           inkscape:connector-curvature="0" />
        <path
           id="path18"
           style="fill:#ffffff;fill-rule:evenodd"
           d="m 164.8382,398.0331 32.3444,0 c 4.0474,0 7.3584,3.311 7.3584,7.3584 l 0,32.3444 c 0,4.0474 -3.311,7.3584 -7.3584,7.3584 l -32.3444,0 c -4.0474,0 -7.3584,-3.311 -7.3584,-7.3584 l 0,-32.3444 c 0,-4.0474 3.311,-7.3584 7.3584,-7.3584 z m 28.2829,28.7553 c 0,1.3601 -0.2572,2.5572 -0.7711,3.5853 -0.5139,1.028 -1.2036,1.874 -2.0749,2.5513 -1.028,0.8085 -2.1562,1.3789 -3.391,1.7237 -1.2286,0.3446 -2.7895,0.5139 -4.6888,0.5139 l -10.9443,0 0,-27.3422 9.6595,0 c 2.0057,0 3.5289,0.0754 4.5632,0.232 1.0343,0.1506 2.0059,0.4702 2.9084,0.9591 0.9778,0.5264 1.7112,1.2348 2.1939,2.1123 0.4827,0.884 0.7272,1.8993 0.7272,3.0527 0,1.3352 -0.3324,2.5198 -1.0028,3.5604 -0.6645,1.0405 -1.586,1.8051 -2.7581,2.3003 l 0,0.1443 c 1.686,0.3574 3.04,1.078 4.0555,2.175 1.0154,1.097 1.5233,2.5763 1.5233,4.4319 z m -8.7946,-11.233 c 0,-0.445 -0.1128,-0.8962 -0.3383,-1.3602 -0.2258,-0.4637 -0.5769,-0.8023 -1.0595,-1.009 -0.4513,-0.2005 -0.9841,-0.3072 -1.6047,-0.3262 -0.6205,-0.0187 -1.5419,-0.0249 -2.7643,-0.0249 l -0.4764,0 0,5.7855 0.8653,0 c 1.1721,0 1.9994,-0.0125 2.4696,-0.0374 0.4699,-0.0253 0.9588,-0.1506 1.4605,-0.3823 0.5451,-0.2573 0.9277,-0.6143 1.1345,-1.0658 0.2067,-0.4575 0.3133,-0.9841 0.3133,-1.5797 z m 1.7238,11.1073 c 0,-0.846 -0.1691,-1.5042 -0.5139,-1.9806 -0.3449,-0.4827 -0.8588,-0.8401 -1.542,-1.0843 -0.4137,-0.163 -0.9903,-0.251 -1.7175,-0.2697 -0.7271,-0.0187 -1.705,-0.0249 -2.9273,-0.0249 l -1.2663,0 0,6.8447 0.3698,0 c 1.7867,0 3.0215,-0.0124 3.7047,-0.0374 0.6832,-0.0252 1.3851,-0.188 2.0936,-0.4952 0.6267,-0.2697 1.0782,-0.6645 1.3664,-1.1849 0.2884,-0.5201 0.4325,-1.1094 0.4325,-1.7677 z"
           inkscape:connector-curvature="0" />
      </g>
      <path
         id="path21"
         style="fill:#ffffff;fill-rule:evenodd"
         d="m 148.7029,375.9912 c -7.2865,0 -13.265,5.9785 -13.265,13.265 l 0,64.615 c 0,7.2862 5.9787,13.2649 13.265,13.2649 l 297.8696,0 c 7.2859,0 13.2649,-5.9789 13.2649,-13.2649 l 0,-64.615 c 0,-7.2863 -5.9787,-13.265 -13.2649,-13.265 z m 0,-1.8993 c -8.3349,0 -15.1643,6.8294 -15.1643,15.1643 l 0,64.615 c 0,8.3346 6.8296,15.1642 15.1643,15.1642 l 297.8696,0 c 8.3343,0 15.1642,-6.8298 15.1642,-15.1642 l 0,-64.615 c 0,-8.3347 -6.8296,-15.1643 -15.1642,-15.1643 z"
         inkscape:connector-curvature="0" />
    </g>
  </g>
</svg>
